Bitcount_Prop_Double-Italic.ufo
<glyph name="px.ix-1.iy-1" format="2">
  <advance width="100"/>
  <outline>
    <contour>
      <point x="-56" y="-100" type="curve" smooth="yes"/>
      <point x="-28" y="-100"/>
      <point x="-6" y="-78"/>
      <point x="-6" y="-50" type="curve" smooth="yes"/>
      <point x="-6" y="-22"/>
      <point x="-28" y="0"/>
      <point x="-56" y="0" type="curve" smooth="yes"/>
      <point x="-84" y="0"/>
      <point x="-106" y="-22"/>
      <point x="-106" y="-50" type="curve" smooth="yes"/>
      <point x="-106" y="-78"/>
      <point x="-84" y="-100"/>
    </contour>
  </outline>
</glyph>
<glyph name="px.ix-1.iy-2" format="2">
  <advance width="100"/>
  <outline>
    <contour>
      <point x="-70" y="-200" type="curve" smooth="yes"/>
      <point x="-42" y="-200"/>
      <point x="-20" y="-178"/>
      <point x="-20" y="-150" type="curve" smooth="yes"/>
      <point x="-20" y="-122"/>
      <point x="-42" y="-100"/>
      <point x="-70" y="-100" type="curve" smooth="yes"/>
      <point x="-98" y="-100"/>
      <point x="-120" y="-122"/>
      <point x="-120" y="-150" type="curve" smooth="yes"/>
      <point x="-120" y="-178"/>
      <point x="-98" y="-200"/>
    </contour>
  </outline>
</glyph>
<glyph name="px.ix-1.iy-3" format="2">
  <advance width="100"/>
  <outline>
    <contour>
      <point x="-84" y="-300" type="curve" smooth="yes"/>
      <point x="-56" y="-300"/>
      <point x="-34" y="-278"/>
      <point x="-34" y="-250" type="curve" smooth="yes"/>
      <point x="-34" y="-222"/>
      <point x="-56" y="-200"/>
      <point x="-84" y="-200" type="curve" smooth="yes"/>
      <point x="-112" y="-200"/>
      <point x="-134" y="-222"/>
      <point x="-134" y="-250" type="curve" smooth="yes"/>
      <point x="-134" y="-278"/>
      <point x="-112" y="-300"/>
    </contour>
  </outline>
</glyph>
<glyph name="px.ix-1.iy0" format="2">
  <advance width="100"/>
  <outline>
    <contour>
      <point x="-42" y="0" type="curve" smooth="yes"/>
      <point x="-14" y="0"/>
      <point x="8" y="22"/>
      <point x="8" y="50" type="curve" smooth="yes"/>
      <point x="8" y="78"/>
      <point x="-14" y="100"/>
      <point x="-42" y="100" type="curve" smooth="yes"/>
      <point x="-70" y="100"/>
      <point x="-92" y="78"/>
      <point x="-92" y="50" type="curve" smooth="yes"/>
      <point x="-92" y="22"/>
      <point x="-70" y="0"/>
    </contour>
  </outline>
</glyph>
<glyph name="px.ix-1.iy2" format="2">
  <advance width="100"/>
  <outline>
    <contour>
      <point x="-14" y="200" type="curve" smooth="yes"/>
      <point x="14" y="200"/>
      <point x="36" y="222"/>
      <point x="36" y="250" type="curve" smooth="yes"/>
      <point x="36" y="278"/>
      <point x="14" y="300"/>
      <point x="-14" y="300" type="curve" smooth="yes"/>
      <point x="-42" y="300"/>
      <point x="-64" y="278"/>
      <point x="-64" y="250" type="curve" smooth="yes"/>
      <point x="-64" y="222"/>
      <point x="-42" y="200"/>
    </contour>
  </outline>
</glyph>
<glyph name="px.ix-1.iy5" format="2">
  <advance width="100"/>
  <outline>
    <contour>
      <point x="28" y="500" type="curve" smooth="yes"/>
      <point x="56" y="500"/>
      <point x="78" y="522"/>
      <point x="78" y="550" type="curve" smooth="yes"/>
      <point x="78" y="578"/>
      <point x="56" y="600"/>
      <point x="28" y="600" type="curve" smooth="yes"/>
      <point x="0" y="600"/>
      <point x="-22" y="578"/>
      <point x="-22" y="550" type="curve" smooth="yes"/>
      <point x="-22" y="522"/>
      <point x="0" y="500"/>
    </contour>
  </outline>
</glyph>
<glyph name="px.ix-1.iy9" format="2">
  <advance width="100"/>
  <outline>
    <contour>
      <point x="84" y="900" type="curve" smooth="yes"/>
      <point x="112" y="900"/>
      <point x="134" y="922"/>
      <point x="134" y="950" type="curve" smooth="yes"/>
      <point x="134" y="978"/>
      <point x="112" y="1000"/>
      <point x="84" y="1000" type="curve" smooth="yes"/>
      <point x="56" y="1000"/>
      <point x="34" y="978"/>
      <point x="34" y="950" type="curve" smooth="yes"/>
      <point x="34" y="922"/>
      <point x="56" y="900"/>
    </contour>
  </outline>
</glyph>
<glyph name="px.ix0.iy4" format="2">
  <advance width="100"/>
  <outline>
    <contour>
      <point x="114" y="400" type="curve" smooth="yes"/>
      <point x="142" y="400"/>
      <point x="164" y="422"/>
      <point x="164" y="450" type="curve" smooth="yes"/>
      <point x="164" y="478"/>
      <point x="142" y="500"/>
      <point x="114" y="500" type="curve" smooth="yes"/>
      <point x="86" y="500"/>
      <point x="64" y="478"/>
      <point x="64" y="450" type="curve" smooth="yes"/>
      <point x="64" y="422"/>
      <point x="86" y="400"/>
    </contour>
  </outline>
</glyph>
<glyph name="px.ix1.iy3" format="2">
  <advance width="100"/>
  <outline>
    <contour>
      <point x="200" y="300" type="curve" smooth="yes"/>
      <point x="228" y="300"/>
      <point x="250" y="322"/>
      <point x="250" y="350" type="curve" smooth="yes"/>
      <point x="250" y="378"/>
      <point x="228" y="400"/>
      <point x="200" y="400" type="curve" smooth="yes"/>
      <point x="172" y="400"/>
      <point x="150" y="378"/>
      <point x="150" y="350" type="curve" smooth="yes"/>
      <point x="150" y="322"/>
      <point x="172" y="300"/>
    </contour>
  </outline>
</glyph>
<glyph name="px.ix2.iy-1" format="2">
  <advance width="100"/>
  <outline>
    <contour>
      <point x="244" y="-100" type="curve" smooth="yes"/>
      <point x="272" y="-100"/>
      <point x="294" y="-78"/>
      <point x="294" y="-50" type="curve" smooth="yes"/>
      <point x="294" y="-22"/>
      <point x="272" y="0"/>
      <point x="244" y="0" type="curve" smooth="yes"/>
      <point x="216" y="0"/>
      <point x="194" y="-22"/>
      <point x="194" y="-50" type="curve" smooth="yes"/>
      <point x="194" y="-78"/>
      <point x="216" y="-100"/>
    </contour>
  </outline>
</glyph>
<glyph name="px.ix2.iy6" format="2">
  <advance width="100"/>
  <outline>
    <contour>
      <point x="342" y="600" type="curve" smooth="yes"/>
      <point x="370" y="600"/>
      <point x="392" y="622"/>
      <point x="392" y="650" type="curve" smooth="yes"/>
      <point x="392" y="678"/>
      <point x="370" y="700"/>
      <point x="342" y="700" type="curve" smooth="yes"/>
      <point x="314" y="700"/>
      <point x="292" y="678"/>
      <point x="292" y="650" type="curve" smooth="yes"/>
      <point x="292" y="622"/>
      <point x="314" y="600"/>
    </contour>
  </outline>
</glyph>
<glyph name="px.ix2.iy7" format="2">
  <advance width="100"/>
  <outline>
    <contour>
      <point x="356" y="700" type="curve" smooth="yes"/>
      <point x="384" y="700"/>
      <point x="406" y="722"/>
      <point x="406" y="750" type="curve" smooth="yes"/>
      <point x="406" y="778"/>
      <point x="384" y="800"/>
      <point x="356" y="800" type="curve" smooth="yes"/>
      <point x="328" y="800"/>
      <point x="306" y="778"/>
      <point x="306" y="750" type="curve" smooth="yes"/>
      <point x="306" y="722"/>
      <point x="328" y="700"/>
    </contour>
  </outline>
</glyph>
<glyph name="px.ix2.iy9" format="2">
  <advance width="100"/>
  <outline>
    <contour>
      <point x="384" y="900" type="curve" smooth="yes"/>
      <point x="412" y="900"/>
      <point x="434" y="922"/>
      <point x="434" y="950" type="curve" smooth="yes"/>
      <point x="434" y="978"/>
      <point x="412" y="1000"/>
      <point x="384" y="1000" type="curve" smooth="yes"/>
      <point x="356" y="1000"/>
      <point x="334" y="978"/>
      <point x="334" y="950" type="curve" smooth="yes"/>
      <point x="334" y="922"/>
      <point x="356" y="900"/>
    </contour>
  </outline>
</glyph>
<glyph name="px.ix3.iy0" format="2">
  <advance width="100"/>
  <outline>
    <contour>
      <point x="358" y="0" type="curve" smooth="yes"/>
      <point x="386" y="0"/>
      <point x="408" y="22"/>
      <point x="408" y="50" type="curve" smooth="yes"/>
      <point x="408" y="78"/>
      <point x="386" y="100"/>
      <point x="358" y="100" type="curve" smooth="yes"/>
      <point x="330" y="100"/>
      <point x="308" y="78"/>
      <point x="308" y="50" type="curve" smooth="yes"/>
      <point x="308" y="22"/>
      <point x="330" y="0"/>
    </contour>
  </outline>
</glyph>
<glyph name="px.ix3.iy7" format="2">
  <advance width="100"/>
  <outline>
    <contour>
      <point x="456" y="700" type="curve" smooth="yes"/>
      <point x="484" y="700"/>
      <point x="506" y="722"/>
      <point x="506" y="750" type="curve" smooth="yes"/>
      <point x="506" y="778"/>
      <point x="484" y="800"/>
      <point x="456" y="800" type="curve" smooth="yes"/>
      <point x="428" y="800"/>
      <point x="406" y="778"/>
      <point x="406" y="750" type="curve" smooth="yes"/>
      <point x="406" y="722"/>
      <point x="428" y="700"/>
    </contour>
  </outline>
</glyph>
<glyph name="px.ix3.iy9" format="2">
  <advance width="100"/>
  <outline>
    <contour>
      <point x="484" y="900" type="curve" smooth="yes"/>
      <point x="512" y="900"/>
      <point x="534" y="922"/>
      <point x="534" y="950" type="curve" smooth="yes"/>
      <point x="534" y="978"/>
      <point x="512" y="1000"/>
      <point x="484" y="1000" type="curve" smooth="yes"/>
      <point x="456" y="1000"/>
      <point x="434" y="978"/>
      <point x="434" y="950" type="curve" smooth="yes"/>
      <point x="434" y="922"/>
      <point x="456" y="900"/>
    </contour>
  </outline>
</glyph>
<glyph name="px.ix5.iy4" format="2">
  <advance width="100"/>
  <outline>
    <contour>
      <point x="614" y="400" type="curve" smooth="yes"/>
      <point x="642" y="400"/>
      <point x="664" y="422"/>
      <point x="664" y="450" type="curve" smooth="yes"/>
      <point x="664" y="478"/>
      <point x="642" y="500"/>
      <point x="614" y="500" type="curve" smooth="yes"/>
      <point x="586" y="500"/>
      <point x="564" y="478"/>
      <point x="564" y="450" type="curve" smooth="yes"/>
      <point x="564" y="422"/>
      <point x="586" y="400"/>
    </contour>
  </outline>
</glyph>
<glyph name="px.ix5.iy8" format="2">
  <advance width="100"/>
  <outline>
    <contour>
      <point x="670" y="800" type="curve" smooth="yes"/>
      <point x="698" y="800"/>
      <point x="720" y="822"/>
      <point x="720" y="850" type="curve" smooth="yes"/>
      <point x="720" y="878"/>
      <point x="698" y="900"/>
      <point x="670" y="900" type="curve" smooth="yes"/>
      <point x="642" y="900"/>
      <point x="620" y="878"/>
      <point x="620" y="850" type="curve" smooth="yes"/>
      <point x="620" y="822"/>
      <point x="642" y="800"/>
    </contour>
  </outline>
</glyph>
<glyph name="px.ix6.iy-1" format="2">
  <advance width="100"/>
  <outline>
    <contour>
      <point x="644" y="-100" type="curve" smooth="yes"/>
      <point x="672" y="-100"/>
      <point x="694" y="-78"/>
      <point x="694" y="-50" type="curve" smooth="yes"/>
      <point x="694" y="-22"/>
      <point x="672" y="0"/>
      <point x="644" y="0" type="curve" smooth="yes"/>
      <point x="616" y="0"/>
      <point x="594" y="-22"/>
      <point x="594" y="-50" type="curve" smooth="yes"/>
      <point x="594" y="-78"/>
      <point x="616" y="-100"/>
    </contour>
  </outline>
</glyph>
<glyph name="px.ix6.iy-2" format="2">
  <advance width="100"/>
  <outline>
    <contour>
      <point x="630" y="-200" type="curve" smooth="yes"/>
      <point x="658" y="-200"/>
      <point x="680" y="-178"/>
      <point x="680" y="-150" type="curve" smooth="yes"/>
      <point x="680" y="-122"/>
      <point x="658" y="-100"/>
      <point x="630" y="-100" type="curve" smooth="yes"/>
      <point x="602" y="-100"/>
      <point x="580" y="-122"/>
      <point x="580" y="-150" type="curve" smooth="yes"/>
      <point x="580" y="-178"/>
      <point x="602" y="-200"/>
    </contour>
  </outline>
</glyph>
<glyph name="px.ix6.iy-3" format="2">
  <advance width="100"/>
  <outline>
    <contour>
      <point x="616" y="-300" type="curve" smooth="yes"/>
      <point x="644" y="-300"/>
      <point x="666" y="-278"/>
      <point x="666" y="-250" type="curve" smooth="yes"/>
      <point x="666" y="-222"/>
      <point x="644" y="-200"/>
      <point x="616" y="-200" type="curve" smooth="yes"/>
      <point x="588" y="-200"/>
      <point x="566" y="-222"/>
      <point x="566" y="-250" type="curve" smooth="yes"/>
      <point x="566" y="-278"/>
      <point x="588" y="-300"/>
    </contour>
  </outline>
</glyph>
<glyph name="px.ix6.iy5" format="2">
  <advance width="100"/>
  <outline>
    <contour>
      <point x="728" y="500" type="curve" smooth="yes"/>
      <point x="756" y="500"/>
      <point x="778" y="522"/>
      <point x="778" y="550" type="curve" smooth="yes"/>
      <point x="778" y="578"/>
      <point x="756" y="600"/>
      <point x="728" y="600" type="curve" smooth="yes"/>
      <point x="700" y="600"/>
      <point x="678" y="578"/>
      <point x="678" y="550" type="curve" smooth="yes"/>
      <point x="678" y="522"/>
      <point x="700" y="500"/>
    </contour>
  </outline>
</glyph>
<glyph name="px.ix6.iy6" format="2">
  <advance width="100"/>
  <outline>
    <contour>
      <point x="742" y="600" type="curve" smooth="yes"/>
      <point x="770" y="600"/>
      <point x="792" y="622"/>
      <point x="792" y="650" type="curve" smooth="yes"/>
      <point x="792" y="678"/>
      <point x="770" y="700"/>
      <point x="742" y="700" type="curve" smooth="yes"/>
      <point x="714" y="700"/>
      <point x="692" y="678"/>
      <point x="692" y="650" type="curve" smooth="yes"/>
      <point x="692" y="622"/>
      <point x="714" y="600"/>
    </contour>
  </outline>
</glyph>
<glyph name="px.ix7.iy-1" format="2">
  <advance width="100"/>
  <outline>
    <contour>
      <point x="744" y="-100" type="curve" smooth="yes"/>
      <point x="772" y="-100"/>
      <point x="794" y="-78"/>
      <point x="794" y="-50" type="curve" smooth="yes"/>
      <point x="794" y="-22"/>
      <point x="772" y="0"/>
      <point x="744" y="0" type="curve" smooth="yes"/>
      <point x="716" y="0"/>
      <point x="694" y="-22"/>
      <point x="694" y="-50" type="curve" smooth="yes"/>
      <point x="694" y="-78"/>
      <point x="716" y="-100"/>
    </contour>
  </outline>
</glyph>
<glyph name="px.ix7.iy-2" format="2">
  <advance width="100"/>
  <outline>
    <contour>
      <point x="730" y="-200" type="curve" smooth="yes"/>
      <point x="758" y="-200"/>
      <point x="780" y="-178"/>
      <point x="780" y="-150" type="curve" smooth="yes"/>
      <point x="780" y="-122"/>
      <point x="758" y="-100"/>
      <point x="730" y="-100" type="curve" smooth="yes"/>
      <point x="702" y="-100"/>
      <point x="680" y="-122"/>
      <point x="680" y="-150" type="curve" smooth="yes"/>
      <point x="680" y="-178"/>
      <point x="702" y="-200"/>
    </contour>
  </outline>
</glyph>
<glyph name="px.ix7.iy1" format="2">
  <advance width="100"/>
  <outline>
    <contour>
      <point x="772" y="100" type="curve" smooth="yes"/>
      <point x="800" y="100"/>
      <point x="822" y="122"/>
      <point x="822" y="150" type="curve" smooth="yes"/>
      <point x="822" y="178"/>
      <point x="800" y="200"/>
      <point x="772" y="200" type="curve" smooth="yes"/>
      <point x="744" y="200"/>
      <point x="722" y="178"/>
      <point x="722" y="150" type="curve" smooth="yes"/>
      <point x="722" y="122"/>
      <point x="744" y="100"/>
    </contour>
  </outline>
</glyph>
<glyph name="px.ix7.iy3" format="2">
  <advance width="100"/>
  <outline>
    <contour>
      <point x="800" y="300" type="curve" smooth="yes"/>
      <point x="828" y="300"/>
      <point x="850" y="322"/>
      <point x="850" y="350" type="curve" smooth="yes"/>
      <point x="850" y="378"/>
      <point x="828" y="400"/>
      <point x="800" y="400" type="curve" smooth="yes"/>
      <point x="772" y="400"/>
      <point x="750" y="378"/>
      <point x="750" y="350" type="curve" smooth="yes"/>
      <point x="750" y="322"/>
      <point x="772" y="300"/>
    </contour>
  </outline>
</glyph>
<glyph name="px.ix7.iy5" format="2">
  <advance width="100"/>
  <outline>
    <contour>
      <point x="828" y="500" type="curve" smooth="yes"/>
      <point x="856" y="500"/>
      <point x="878" y="522"/>
      <point x="878" y="550" type="curve" smooth="yes"/>
      <point x="878" y="578"/>
      <point x="856" y="600"/>
      <point x="828" y="600" type="curve" smooth="yes"/>
      <point x="800" y="600"/>
      <point x="778" y="578"/>
      <point x="778" y="550" type="curve" smooth="yes"/>
      <point x="778" y="522"/>
      <point x="800" y="500"/>
    </contour>
  </outline>
</glyph>
<glyph name="px.ix7.iy7" format="2">
  <advance width="100"/>
  <outline>
    <contour>
      <point x="856" y="700" type="curve" smooth="yes"/>
      <point x="884" y="700"/>
      <point x="906" y="722"/>
      <point x="906" y="750" type="curve" smooth="yes"/>
      <point x="906" y="778"/>
      <point x="884" y="800"/>
      <point x="856" y="800" type="curve" smooth="yes"/>
      <point x="828" y="800"/>
      <point x="806" y="778"/>
      <point x="806" y="750" type="curve" smooth="yes"/>
      <point x="806" y="722"/>
      <point x="828" y="700"/>
    </contour>
  </outline>
</glyph>
<glyph name="px.ix8.iy-2" format="2">
  <advance width="100"/>
  <outline>
    <contour>
      <point x="830" y="-200" type="curve" smooth="yes"/>
      <point x="858" y="-200"/>
      <point x="880" y="-178"/>
      <point x="880" y="-150" type="curve" smooth="yes"/>
      <point x="880" y="-122"/>
      <point x="858" y="-100"/>
      <point x="830" y="-100" type="curve" smooth="yes"/>
      <point x="802" y="-100"/>
      <point x="780" y="-122"/>
      <point x="780" y="-150" type="curve" smooth="yes"/>
      <point x="780" y="-178"/>
      <point x="802" y="-200"/>
    </contour>
  </outline>
</glyph>
<glyph name="px.ix8.iy-3" format="2">
  <advance width="100"/>
  <outline>
    <contour>
      <point x="816" y="-300" type="curve" smooth="yes"/>
      <point x="844" y="-300"/>
      <point x="866" y="-278"/>
      <point x="866" y="-250" type="curve" smooth="yes"/>
      <point x="866" y="-222"/>
      <point x="844" y="-200"/>
      <point x="816" y="-200" type="curve" smooth="yes"/>
      <point x="788" y="-200"/>
      <point x="766" y="-222"/>
      <point x="766" y="-250" type="curve" smooth="yes"/>
      <point x="766" y="-278"/>
      <point x="788" y="-300"/>
    </contour>
  </outline>
</glyph>
<glyph name="px.ix8.iy0" format="2">
  <advance width="100"/>
  <outline>
    <contour>
      <point x="858" y="0" type="curve" smooth="yes"/>
      <point x="886" y="0"/>
      <point x="908" y="22"/>
      <point x="908" y="50" type="curve" smooth="yes"/>
      <point x="908" y="78"/>
      <point x="886" y="100"/>
      <point x="858" y="100" type="curve" smooth="yes"/>
      <point x="830" y="100"/>
      <point x="808" y="78"/>
      <point x="808" y="50" type="curve" smooth="yes"/>
      <point x="808" y="22"/>
      <point x="830" y="0"/>
    </contour>
  </outline>
</glyph>
<glyph name="px.ix8.iy6" format="2">
  <advance width="100"/>
  <outline>
    <contour>
      <point x="942" y="600" type="curve" smooth="yes"/>
      <point x="970" y="600"/>
      <point x="992" y="622"/>
      <point x="992" y="650" type="curve" smooth="yes"/>
      <point x="992" y="678"/>
      <point x="970" y="700"/>
      <point x="942" y="700" type="curve" smooth="yes"/>
      <point x="914" y="700"/>
      <point x="892" y="678"/>
      <point x="892" y="650" type="curve" smooth="yes"/>
      <point x="892" y="622"/>
      <point x="914" y="600"/>
    </contour>
  </outline>
</glyph>
<glyph name="px.ix8.iy7" format="2">
  <advance width="100"/>
  <outline>
    <contour>
      <point x="956" y="700" type="curve" smooth="yes"/>
      <point x="984" y="700"/>
      <point x="1006" y="722"/>
      <point x="1006" y="750" type="curve" smooth="yes"/>
      <point x="1006" y="778"/>
      <point x="984" y="800"/>
      <point x="956" y="800" type="curve" smooth="yes"/>
      <point x="928" y="800"/>
      <point x="906" y="778"/>
      <point x="906" y="750" type="curve" smooth="yes"/>
      <point x="906" y="722"/>
      <point x="928" y="700"/>
    </contour>
  </outline>
</glyph>
<glyph name="px.ix8.iy9" format="2">
  <advance width="100"/>
  <outline>
    <contour>
      <point x="984" y="900" type="curve" smooth="yes"/>
      <point x="1012" y="900"/>
      <point x="1034" y="922"/>
      <point x="1034" y="950" type="curve" smooth="yes"/>
      <point x="1034" y="978"/>
      <point x="1012" y="1000"/>
      <point x="984" y="1000" type="curve" smooth="yes"/>
      <point x="956" y="1000"/>
      <point x="934" y="978"/>
      <point x="934" y="950" type="curve" smooth="yes"/>
      <point x="934" y="922"/>
      <point x="956" y="900"/>
    </contour>
  </outline>
</glyph>
<glyph name="px.ix9.iy0" format="2">
  <advance width="100"/>
  <outline>
    <contour>
      <point x="958" y="0" type="curve" smooth="yes"/>
      <point x="986" y="0"/>
      <point x="1008" y="22"/>
      <point x="1008" y="50" type="curve" smooth="yes"/>
      <point x="1008" y="78"/>
      <point x="986" y="100"/>
      <point x="958" y="100" type="curve" smooth="yes"/>
      <point x="930" y="100"/>
      <point x="908" y="78"/>
      <point x="908" y="50" type="curve" smooth="yes"/>
      <point x="908" y="22"/>
      <point x="930" y="0"/>
    </contour>
  </outline>
</glyph>
<glyph name="px.ix9.iy3" format="2">
  <advance width="100"/>
  <outline>
    <contour>
      <point x="1000" y="300" type="curve" smooth="yes"/>
      <point x="1028" y="300"/>
      <point x="1050" y="322"/>
      <point x="1050" y="350" type="curve" smooth="yes"/>
      <point x="1050" y="378"/>
      <point x="1028" y="400"/>
      <point x="1000" y="400" type="curve" smooth="yes"/>
      <point x="972" y="400"/>
      <point x="950" y="378"/>
      <point x="950" y="350" type="curve" smooth="yes"/>
      <point x="950" y="322"/>
      <point x="972" y="300"/>
    </contour>
  </outline>
</glyph>
<glyph name="px.ix9.iy5" format="2">
  <advance width="100"/>
  <outline>
    <contour>
      <point x="1028" y="500" type="curve" smooth="yes"/>
      <point x="1056" y="500"/>
      <point x="1078" y="522"/>
      <point x="1078" y="550" type="curve" smooth="yes"/>
      <point x="1078" y="578"/>
      <point x="1056" y="600"/>
      <point x="1028" y="600" type="curve" smooth="yes"/>
      <point x="1000" y="600"/>
      <point x="978" y="578"/>
      <point x="978" y="550" type="curve" smooth="yes"/>
      <point x="978" y="522"/>
      <point x="1000" y="500"/>
    </contour>
  </outline>
</glyph>
<glyph name="px.ix9.iy7" format="2">
  <advance width="100"/>
  <outline>
    <contour>
      <point x="1056" y="700" type="curve" smooth="yes"/>
      <point x="1084" y="700"/>
      <point x="1106" y="722"/>
      <point x="1106" y="750" type="curve" smooth="yes"/>
      <point x="1106" y="778"/>
      <point x="1084" y="800"/>
      <point x="1056" y="800" type="curve" smooth="yes"/>
      <point x="1028" y="800"/>
      <point x="1006" y="778"/>
      <point x="1006" y="750" type="curve" smooth="yes"/>
      <point x="1006" y="722"/>
      <point x="1028" y="700"/>
    </contour>
  </outline>
</glyph>
